# MagicaVoxel @ Ephtracy

# group
o 

# material
mtllib bee-1.mtl
usemtl palette

# normals
vn -1 0 0
vn 1 0 0
vn 0 0 1
vn 0 0 -1
vn 0 -1 0
vn 0 1 0

# texcoords
vt 0.427734 0.5
vt 0.431641 0.5
vt 0.982422 0.5
vt 0.994141 0.5

# verts
v -0.3 0.2 0.2
v -0.3 0.2 0.1
v -0.3 0.2 0
v -0.3 0.2 -0.1
v -0.3 0.2 -0.2
v -0.3 0.2 -0.3
v -0.3 0.2 -0.4
v -0.3 0.5 0.2
v -0.3 0.5 0.1
v -0.3 0.5 0
v -0.3 0.5 -0.1
v -0.3 0.5 -0.2
v -0.3 0.5 -0.3
v -0.3 0.5 -0.4
v -0.2 0 0.2
v -0.2 0 0.1
v -0.2 0.1 0.1
v -0.2 0.1 0
v -0.2 0.1 -0.1
v -0.2 0.1 -0.2
v -0.2 0.1 -0.3
v -0.2 0.1 -0.4
v -0.2 0.2 0.3
v -0.2 0.2 0.2
v -0.2 0.2 0.1
v -0.2 0.2 0
v -0.2 0.2 -0.1
v -0.2 0.2 -0.2
v -0.2 0.2 -0.3
v -0.2 0.2 -0.4
v -0.2 0.2 -0.5
v -0.2 0.3 0.5
v -0.2 0.3 0.4
v -0.2 0.3 0.3
v -0.2 0.4 0.5
v -0.2 0.4 0.4
v -0.2 0.4 0.3
v -0.2 0.5 0.3
v -0.2 0.5 0.2
v -0.2 0.5 0.1
v -0.2 0.5 0
v -0.2 0.5 -0.1
v -0.2 0.5 -0.2
v -0.2 0.5 -0.3
v -0.2 0.5 -0.4
v -0.2 0.5 -0.5
v -0.2 0.6 0.1
v -0.2 0.6 0
v -0.2 0.6 -0.1
v -0.2 0.6 -0.2
v -0.2 0.6 -0.3
v -0.2 0.6 -0.4
v -0.1 0.2 0.5
v -0.1 0.2 0.4
v -0.1 0.2 0.3
v -0.1 0.3 0.5
v -0.1 0.3 0.4
v -0.1 0.3 0.3
v 2.98023e-008 0 0.2
v 2.98023e-008 0 0.1
v 2.98023e-008 0.1 0.2
v 2.98023e-008 0.1 0.1
v -0.1 0 0.2
v -0.1 0 0.1
v -0.1 0.1 0.2
v -0.1 0.1 0.1
v 2.98023e-008 0.2 0.5
v 2.98023e-008 0.2 0.4
v 2.98023e-008 0.2 0.3
v 2.98023e-008 0.3 0.5
v 2.98023e-008 0.3 0.4
v 2.98023e-008 0.3 0.3
v 0.1 0 0.2
v 0.1 0 0.1
v 0.1 0.1 0.1
v 0.1 0.1 0
v 0.1 0.1 -0.1
v 0.1 0.1 -0.2
v 0.1 0.1 -0.3
v 0.1 0.1 -0.4
v 0.1 0.2 0.3
v 0.1 0.2 0.2
v 0.1 0.2 0.1
v 0.1 0.2 0
v 0.1 0.2 -0.1
v 0.1 0.2 -0.2
v 0.1 0.2 -0.3
v 0.1 0.2 -0.4
v 0.1 0.2 -0.5
v 0.1 0.3 0.5
v 0.1 0.3 0.4
v 0.1 0.3 0.3
v 0.1 0.4 0.5
v 0.1 0.4 0.4
v 0.1 0.4 0.3
v 0.1 0.5 0.3
v 0.1 0.5 0.2
v 0.1 0.5 0.1
v 0.1 0.5 0
v 0.1 0.5 -0.1
v 0.1 0.5 -0.2
v 0.1 0.5 -0.3
v 0.1 0.5 -0.4
v 0.1 0.5 -0.5
v 0.1 0.6 0.1
v 0.1 0.6 0
v 0.1 0.6 -0.1
v 0.1 0.6 -0.2
v 0.1 0.6 -0.3
v 0.1 0.6 -0.4
v 0.2 0.2 0.2
v 0.2 0.2 0.1
v 0.2 0.2 0
v 0.2 0.2 -0.1
v 0.2 0.2 -0.2
v 0.2 0.2 -0.3
v 0.2 0.2 -0.4
v 0.2 0.5 0.2
v 0.2 0.5 0.1
v 0.2 0.5 0
v 0.2 0.5 -0.1
v 0.2 0.5 -0.2
v 0.2 0.5 -0.3
v 0.2 0.5 -0.4
v -0.2 0.3 0.5
v -0.2 0.4 0.5
v -0.1 0.2 0.5
v -0.1 0.3 0.5
v 2.98023e-008 0.2 0.5
v 2.98023e-008 0.3 0.5
v 0.1 0.3 0.5
v 0.1 0.4 0.5
v -0.2 0.2 0.3
v -0.2 0.3 0.3
v -0.2 0.4 0.3
v -0.2 0.5 0.3
v -0.1 0.2 0.3
v -0.1 0.3 0.3
v 2.98023e-008 0.2 0.3
v 2.98023e-008 0.3 0.3
v 0.1 0.2 0.3
v 0.1 0.3 0.3
v 0.1 0.4 0.3
v 0.1 0.5 0.3
v -0.3 0.2 0.2
v -0.3 0.5 0.2
v -0.2 0 0.2
v -0.2 0.2 0.2
v -0.2 0.5 0.2
v -0.1 0 0.2
v -0.1 0.1 0.2
v 2.98023e-008 0 0.2
v 2.98023e-008 0.1 0.2
v 0.1 0 0.2
v 0.1 0.2 0.2
v 0.1 0.5 0.2
v 0.2 0.2 0.2
v 0.2 0.5 0.2
v -0.2 0.5 0.1
v -0.2 0.6 0.1
v 0.1 0.5 0.1
v 0.1 0.6 0.1
v -0.2 0 0.1
v -0.2 0.1 0.1
v -0.1 0 0.1
v -0.1 0.1 0.1
v 2.98023e-008 0 0.1
v 2.98023e-008 0.1 0.1
v 0.1 0 0.1
v 0.1 0.1 0.1
v -0.3 0.2 -0.4
v -0.3 0.5 -0.4
v -0.2 0.1 -0.4
v -0.2 0.2 -0.4
v -0.2 0.5 -0.4
v -0.2 0.6 -0.4
v 0.1 0.1 -0.4
v 0.1 0.2 -0.4
v 0.1 0.5 -0.4
v 0.1 0.6 -0.4
v 0.2 0.2 -0.4
v 0.2 0.5 -0.4
v -0.2 0.2 -0.5
v -0.2 0.5 -0.5
v 0.1 0.2 -0.5
v 0.1 0.5 -0.5
v -0.2 0 0.2
v -0.1 0 0.2
v 2.98023e-008 0 0.2
v 0.1 0 0.2
v -0.2 0 0.1
v -0.1 0 0.1
v 2.98023e-008 0 0.1
v 0.1 0 0.1
v -0.1 0.1 0.2
v 2.98023e-008 0.1 0.2
v -0.2 0.1 0.1
v -0.1 0.1 0.1
v 2.98023e-008 0.1 0.1
v 0.1 0.1 0.1
v -0.2 0.1 0
v 0.1 0.1 0
v -0.2 0.1 -0.1
v 0.1 0.1 -0.1
v -0.2 0.1 -0.2
v 0.1 0.1 -0.2
v -0.2 0.1 -0.3
v 0.1 0.1 -0.3
v -0.2 0.1 -0.4
v 0.1 0.1 -0.4
v -0.1 0.2 0.5
v 2.98023e-008 0.2 0.5
v -0.1 0.2 0.4
v 2.98023e-008 0.2 0.4
v -0.2 0.2 0.3
v -0.1 0.2 0.3
v 2.98023e-008 0.2 0.3
v 0.1 0.2 0.3
v -0.3 0.2 0.2
v -0.2 0.2 0.2
v 0.1 0.2 0.2
v 0.2 0.2 0.2
v -0.3 0.2 0.1
v -0.2 0.2 0.1
v 0.1 0.2 0.1
v 0.2 0.2 0.1
v -0.3 0.2 0
v -0.2 0.2 0
v 0.1 0.2 0
v 0.2 0.2 0
v -0.3 0.2 -0.1
v -0.2 0.2 -0.1
v 0.1 0.2 -0.1
v 0.2 0.2 -0.1
v -0.3 0.2 -0.2
v -0.2 0.2 -0.2
v 0.1 0.2 -0.2
v 0.2 0.2 -0.2
v -0.3 0.2 -0.3
v -0.2 0.2 -0.3
v 0.1 0.2 -0.3
v 0.2 0.2 -0.3
v -0.3 0.2 -0.4
v -0.2 0.2 -0.4
v 0.1 0.2 -0.4
v 0.2 0.2 -0.4
v -0.2 0.2 -0.5
v 0.1 0.2 -0.5
v -0.2 0.3 0.5
v -0.1 0.3 0.5
v 2.98023e-008 0.3 0.5
v 0.1 0.3 0.5
v -0.2 0.3 0.4
v -0.1 0.3 0.4
v 2.98023e-008 0.3 0.4
v 0.1 0.3 0.4
v -0.2 0.3 0.3
v -0.1 0.3 0.3
v 2.98023e-008 0.3 0.3
v 0.1 0.3 0.3
v -0.2 0.4 0.5
v 0.1 0.4 0.5
v -0.2 0.4 0.4
v 0.1 0.4 0.4
v -0.2 0.4 0.3
v 0.1 0.4 0.3
v -0.2 0.5 0.3
v 0.1 0.5 0.3
v -0.3 0.5 0.2
v -0.2 0.5 0.2
v 0.1 0.5 0.2
v 0.2 0.5 0.2
v -0.3 0.5 0.1
v -0.2 0.5 0.1
v 0.1 0.5 0.1
v 0.2 0.5 0.1
v -0.3 0.5 0
v -0.2 0.5 0
v 0.1 0.5 0
v 0.2 0.5 0
v -0.3 0.5 -0.1
v -0.2 0.5 -0.1
v 0.1 0.5 -0.1
v 0.2 0.5 -0.1
v -0.3 0.5 -0.2
v -0.2 0.5 -0.2
v 0.1 0.5 -0.2
v 0.2 0.5 -0.2
v -0.3 0.5 -0.3
v -0.2 0.5 -0.3
v 0.1 0.5 -0.3
v 0.2 0.5 -0.3
v -0.3 0.5 -0.4
v -0.2 0.5 -0.4
v 0.1 0.5 -0.4
v 0.2 0.5 -0.4
v -0.2 0.5 -0.5
v 0.1 0.5 -0.5
v -0.2 0.6 0.1
v 0.1 0.6 0.1
v -0.2 0.6 0
v 0.1 0.6 0
v -0.2 0.6 -0.1
v 0.1 0.6 -0.1
v -0.2 0.6 -0.2
v 0.1 0.6 -0.2
v -0.2 0.6 -0.3
v 0.1 0.6 -0.3
v -0.2 0.6 -0.4
v 0.1 0.6 -0.4

# faces
f 8/2/1 2/2/1 1/2/1
f 9/1/1 3/1/1 2/1/1
f 9/2/1 2/2/1 8/2/1
f 10/4/1 4/4/1 3/4/1
f 10/1/1 3/1/1 9/1/1
f 11/1/1 5/1/1 4/1/1
f 11/4/1 4/4/1 10/4/1
f 12/4/1 6/4/1 5/4/1
f 12/1/1 5/1/1 11/1/1
f 13/1/1 7/1/1 6/1/1
f 13/4/1 6/4/1 12/4/1
f 14/1/1 7/1/1 13/1/1
f 17/4/1 16/4/1 15/4/1
f 24/4/1 17/4/1 15/4/1
f 25/1/1 18/1/1 17/1/1
f 25/4/1 17/4/1 24/4/1
f 26/4/1 19/4/1 18/4/1
f 26/1/1 18/1/1 25/1/1
f 27/1/1 20/1/1 19/1/1
f 27/4/1 19/4/1 26/4/1
f 28/4/1 21/4/1 20/4/1
f 28/1/1 20/1/1 27/1/1
f 29/1/1 22/1/1 21/1/1
f 29/4/1 21/4/1 28/4/1
f 30/1/1 22/1/1 29/1/1
f 34/4/1 24/4/1 23/4/1
f 35/3/1 33/3/1 32/3/1
f 36/4/1 34/4/1 33/4/1
f 36/3/1 33/3/1 35/3/1
f 37/4/1 24/4/1 34/4/1
f 37/4/1 34/4/1 36/4/1
f 38/4/1 24/4/1 37/4/1
f 39/4/1 24/4/1 38/4/1
f 45/4/1 31/4/1 30/4/1
f 46/4/1 31/4/1 45/4/1
f 47/1/1 41/1/1 40/1/1
f 48/4/1 42/4/1 41/4/1
f 48/1/1 41/1/1 47/1/1
f 49/1/1 43/1/1 42/1/1
f 49/4/1 42/4/1 48/4/1
f 50/4/1 44/4/1 43/4/1
f 50/1/1 43/1/1 49/1/1
f 51/1/1 45/1/1 44/1/1
f 51/4/1 44/4/1 50/4/1
f 52/1/1 45/1/1 51/1/1
f 56/3/1 54/3/1 53/3/1
f 57/4/1 55/4/1 54/4/1
f 57/3/1 54/3/1 56/3/1
f 58/4/1 55/4/1 57/4/1
f 61/4/1 60/4/1 59/4/1
f 62/4/1 60/4/1 61/4/1
f 63/4/2 64/4/2 65/4/2
f 65/4/2 64/4/2 66/4/2
f 67/3/2 68/3/2 70/3/2
f 68/4/2 69/4/2 71/4/2
f 70/3/2 68/3/2 71/3/2
f 71/4/2 69/4/2 72/4/2
f 73/4/2 74/4/2 75/4/2
f 73/4/2 75/4/2 82/4/2
f 75/1/2 76/1/2 83/1/2
f 82/4/2 75/4/2 83/4/2
f 76/4/2 77/4/2 84/4/2
f 83/1/2 76/1/2 84/1/2
f 77/1/2 78/1/2 85/1/2
f 84/4/2 77/4/2 85/4/2
f 78/4/2 79/4/2 86/4/2
f 85/1/2 78/1/2 86/1/2
f 79/1/2 80/1/2 87/1/2
f 86/4/2 79/4/2 87/4/2
f 87/1/2 80/1/2 88/1/2
f 81/4/2 82/4/2 92/4/2
f 90/3/2 91/3/2 93/3/2
f 91/4/2 92/4/2 94/4/2
f 93/3/2 91/3/2 94/3/2
f 92/4/2 82/4/2 95/4/2
f 94/4/2 92/4/2 95/4/2
f 95/4/2 82/4/2 96/4/2
f 96/4/2 82/4/2 97/4/2
f 88/4/2 89/4/2 103/4/2
f 103/4/2 89/4/2 104/4/2
f 98/1/2 99/1/2 105/1/2
f 99/4/2 100/4/2 106/4/2
f 105/1/2 99/1/2 106/1/2
f 100/1/2 101/1/2 107/1/2
f 106/4/2 100/4/2 107/4/2
f 101/4/2 102/4/2 108/4/2
f 107/1/2 101/1/2 108/1/2
f 102/1/2 103/1/2 109/1/2
f 108/4/2 102/4/2 109/4/2
f 109/1/2 103/1/2 110/1/2
f 111/2/2 112/2/2 118/2/2
f 112/1/2 113/1/2 119/1/2
f 118/2/2 112/2/2 119/2/2
f 113/4/2 114/4/2 120/4/2
f 119/1/2 113/1/2 120/1/2
f 114/1/2 115/1/2 121/1/2
f 120/4/2 114/4/2 121/4/2
f 115/4/2 116/4/2 122/4/2
f 121/1/2 115/1/2 122/1/2
f 116/1/2 117/1/2 123/1/2
f 122/4/2 116/4/2 123/4/2
f 123/1/2 117/1/2 124/1/2
f 128/3/3 126/3/3 125/3/3
f 129/3/3 128/3/3 127/3/3
f 130/3/3 126/3/3 128/3/3
f 130/3/3 128/3/3 129/3/3
f 131/3/3 126/3/3 130/3/3
f 132/3/3 126/3/3 131/3/3
f 137/4/3 134/4/3 133/4/3
f 138/4/3 134/4/3 137/4/3
f 141/4/3 140/4/3 139/4/3
f 142/4/3 140/4/3 141/4/3
f 143/4/3 136/4/3 135/4/3
f 144/4/3 136/4/3 143/4/3
f 148/2/3 146/2/3 145/2/3
f 149/2/3 146/2/3 148/2/3
f 150/4/3 148/4/3 147/4/3
f 151/4/3 148/4/3 150/4/3
f 153/4/3 148/4/3 151/4/3
f 154/4/3 153/4/3 152/4/3
f 155/4/3 148/4/3 153/4/3
f 155/4/3 153/4/3 154/4/3
f 157/2/3 156/2/3 155/2/3
f 158/2/3 156/2/3 157/2/3
f 161/1/3 160/1/3 159/1/3
f 162/1/3 160/1/3 161/1/3
f 163/4/4 164/4/4 165/4/4
f 165/4/4 164/4/4 166/4/4
f 167/4/4 168/4/4 169/4/4
f 169/4/4 168/4/4 170/4/4
f 171/1/4 172/1/4 174/1/4
f 174/1/4 172/1/4 175/1/4
f 173/1/4 174/1/4 177/1/4
f 177/1/4 174/1/4 178/1/4
f 175/1/4 176/1/4 179/1/4
f 179/1/4 176/1/4 180/1/4
f 178/1/4 179/1/4 181/1/4
f 181/1/4 179/1/4 182/1/4
f 183/4/4 184/4/4 185/4/4
f 185/4/4 184/4/4 186/4/4
f 191/4/5 188/4/5 187/4/5
f 192/4/5 188/4/5 191/4/5
f 193/4/5 190/4/5 189/4/5
f 194/4/5 190/4/5 193/4/5
f 198/4/5 196/4/5 195/4/5
f 199/4/5 196/4/5 198/4/5
f 201/1/5 198/1/5 197/1/5
f 201/1/5 200/1/5 199/1/5
f 201/1/5 199/1/5 198/1/5
f 202/1/5 200/1/5 201/1/5
f 203/4/5 202/4/5 201/4/5
f 204/4/5 202/4/5 203/4/5
f 205/1/5 204/1/5 203/1/5
f 206/1/5 204/1/5 205/1/5
f 207/4/5 206/4/5 205/4/5
f 208/4/5 206/4/5 207/4/5
f 209/1/5 208/1/5 207/1/5
f 210/1/5 208/1/5 209/1/5
f 213/3/5 212/3/5 211/3/5
f 214/3/5 212/3/5 213/3/5
f 216/4/5 214/4/5 213/4/5
f 217/4/5 214/4/5 216/4/5
f 220/4/5 217/4/5 216/4/5
f 220/4/5 218/4/5 217/4/5
f 220/4/5 216/4/5 215/4/5
f 221/4/5 218/4/5 220/4/5
f 223/2/5 220/2/5 219/2/5
f 224/2/5 220/2/5 223/2/5
f 225/2/5 222/2/5 221/2/5
f 226/2/5 222/2/5 225/2/5
f 227/1/5 224/1/5 223/1/5
f 228/1/5 224/1/5 227/1/5
f 229/1/5 226/1/5 225/1/5
f 230/1/5 226/1/5 229/1/5
f 231/4/5 228/4/5 227/4/5
f 232/4/5 228/4/5 231/4/5
f 233/4/5 230/4/5 229/4/5
f 234/4/5 230/4/5 233/4/5
f 235/1/5 232/1/5 231/1/5
f 236/1/5 232/1/5 235/1/5
f 237/1/5 234/1/5 233/1/5
f 238/1/5 234/1/5 237/1/5
f 239/4/5 236/4/5 235/4/5
f 240/4/5 236/4/5 239/4/5
f 241/4/5 238/4/5 237/4/5
f 242/4/5 238/4/5 241/4/5
f 243/1/5 240/1/5 239/1/5
f 244/1/5 240/1/5 243/1/5
f 245/1/5 242/1/5 241/1/5
f 246/1/5 242/1/5 245/1/5
f 247/4/5 245/4/5 244/4/5
f 248/4/5 245/4/5 247/4/5
f 253/3/5 250/3/5 249/3/5
f 254/3/5 250/3/5 253/3/5
f 255/3/5 252/3/5 251/3/5
f 256/3/5 252/3/5 255/3/5
f 257/4/5 254/4/5 253/4/5
f 258/4/5 254/4/5 257/4/5
f 259/4/5 256/4/5 255/4/5
f 260/4/5 256/4/5 259/4/5
f 261/3/6 262/3/6 263/3/6
f 263/3/6 262/3/6 264/3/6
f 263/4/6 264/4/6 265/4/6
f 265/4/6 264/4/6 266/4/6
f 267/4/6 268/4/6 270/4/6
f 270/4/6 268/4/6 271/4/6
f 269/2/6 270/2/6 273/2/6
f 271/2/6 272/2/6 273/2/6
f 270/2/6 271/2/6 273/2/6
f 273/2/6 272/2/6 274/2/6
f 274/2/6 272/2/6 275/2/6
f 275/2/6 272/2/6 276/2/6
f 273/1/6 274/1/6 277/1/6
f 277/1/6 274/1/6 278/1/6
f 275/1/6 276/1/6 279/1/6
f 279/1/6 276/1/6 280/1/6
f 277/4/6 278/4/6 281/4/6
f 281/4/6 278/4/6 282/4/6
f 279/4/6 280/4/6 283/4/6
f 283/4/6 280/4/6 284/4/6
f 281/1/6 282/1/6 285/1/6
f 285/1/6 282/1/6 286/1/6
f 283/1/6 284/1/6 287/1/6
f 287/1/6 284/1/6 288/1/6
f 285/4/6 286/4/6 289/4/6
f 289/4/6 286/4/6 290/4/6
f 287/4/6 288/4/6 291/4/6
f 291/4/6 288/4/6 292/4/6
f 289/1/6 290/1/6 293/1/6
f 293/1/6 290/1/6 294/1/6
f 291/1/6 292/1/6 295/1/6
f 295/1/6 292/1/6 296/1/6
f 294/4/6 295/4/6 297/4/6
f 297/4/6 295/4/6 298/4/6
f 299/1/6 300/1/6 301/1/6
f 301/1/6 300/1/6 302/1/6
f 301/4/6 302/4/6 303/4/6
f 303/4/6 302/4/6 304/4/6
f 303/1/6 304/1/6 305/1/6
f 305/1/6 304/1/6 306/1/6
f 305/4/6 306/4/6 307/4/6
f 307/4/6 306/4/6 308/4/6
f 307/1/6 308/1/6 309/1/6
f 309/1/6 308/1/6 310/1/6
